<svg xmlns="http://www.w3.org/2000/svg" viewBox="0 0 464.094 464.094"><path fill="#ffebd2" d="M450.319,410.094h-19.27v-122c0-13.25-10.75-24-24-24h-15v-102c0-13.25-10.75-24-24-24h-272	c-13.25,0-24,10.75-24,24v102h-15c-13.25,0-24,10.75-24,24v122h-19.27c-8.633,0-15.072,7.775-13.5,16.03	c4.13,22.01,23.55,37.97,46.19,37.97h371.16c22.614,0,42.043-15.913,46.19-37.97C465.379,417.784,458.899,410.094,450.319,410.094z"></path><path fill="#cbe3fa" d="M450.319,410.094c8.58,0,15.06,7.69,13.5,16.03c-4.146,22.051-23.569,37.97-46.19,37.97H46.469	c-22.64,0-42.03-15.966-46.19-37.97c-1.564-8.273,4.873-16.03,13.5-16.03H450.319z"></path><path fill="#ff6d7a" d="M250.469,40.834c26.94,4.12,42.39,33.07,31,57.82c-7.95,17.3-20.26,32.6-36.4,44.24	c-7.75,5.6-18.28,5.6-26.03,0c-16.13-11.64-28.44-26.93-36.4-44.23c-11.46-24.91,4.29-53.83,31.41-57.89	C226.099,38.974,238.389,38.984,250.469,40.834z"></path><path fill="#ff8c95" d="M263.654,45.219c4.697,2.524,2.722,9.68-2.603,9.406c-7.488-0.386-16.264-0.155-25.002,1.15	c-24.095,3.607-45.026,28.53-29.584,61.993c2.463,5.338-4.767,9.827-8.428,5.226c-6.444-8.098-12.002-16.949-15.398-24.33	c-11.46-24.91,4.29-53.83,31.41-57.89c12.05-1.8,24.34-1.79,36.42,0.06C255.257,41.568,259.68,43.083,263.654,45.219z"></path><path fill="#befa91" d="M281.789,1.134c3.77,0.87,6.31,4.39,5.93,8.25c-1.81,18.87-14.83,28.62-16.4,29.76	c-12.84,9.22-27.32,7.48-34.76,5.65c-2.92-0.72-4.89-3.45-4.64-6.46c0.64-7.62,3.61-21.91,16.44-31.13	C249.939,6.064,263.319-3.166,281.789,1.134z"></path><path fill="#ff6d7a" d="M353.335,320.48c0.777,1.301,2.651,1.301,3.427,0c9.767-16.372,37.079-8.965,35.467,11.775	c-1.92,24.46-22.64,41.79-37.13,41.79c-14.71,0-35.32-17.44-37.23-41.79C316.257,311.48,343.578,304.149,353.335,320.48z"></path><path fill="#ff6d7a" d="M230.336,320.479c0.777,1.302,2.65,1.302,3.427,0c9.757-16.331,37.077-9,35.466,11.774	c-1.91,24.35-22.52,41.79-37.23,41.79c-14.49,0-35.21-17.33-37.13-41.79C193.257,311.514,220.569,304.107,230.336,320.479z"></path><path fill="#ff6d7a" d="M107.336,320.479c0.777,1.302,2.65,1.302,3.427,0c9.757-16.331,37.077-9,35.466,11.774	c-1.91,24.35-22.52,41.79-37.23,41.79c-14.49,0-35.21-17.33-37.13-41.79C70.257,311.514,97.569,304.107,107.336,320.479z"></path><path fill="#ff6d7a" d="M392.049,162.094v50c-13.66-9.56-32.06-9.56-45.71,0c-13.658,9.559-32.06,9.56-45.72,0	c-13.646-9.55-32.056-9.57-45.71,0c-13.661,9.561-32.06,9.56-45.72,0c-13.64-9.56-32.05-9.56-45.71,0	c-13.658,9.559-32.06,9.56-45.72,0c-13.661-9.561-32.05-9.56-45.71,0v-50c0-13.25,10.75-24,24-24h272	C381.299,138.094,392.049,148.844,392.049,162.094z"></path><path fill="#daffbf" d="M281.411,8.48c-17.555,2.579-30.24,15.447-33.083,34.366c-0.295,1.961-2.028,3.396-4.004,3.229	c-3.02-0.255-5.672-0.76-7.764-1.281c-2.92-0.72-4.89-3.45-4.64-6.46c0.64-7.62,3.61-21.91,16.44-31.13	c1.58-1.14,14.96-10.37,33.43-6.07C285.872,2.072,285.425,7.89,281.411,8.48z"></path><path fill="#fff3e4" d="M102.049,212.94v43.154c0,4.418-3.582,8-8,8h-22v-52c6.604-4.622,14.272-6.975,21.89-7.16	C98.399,204.825,102.049,208.479,102.049,212.94z"></path><path fill="#ff8c95" d="M368.536,158.094H126.049c-13.255,0-24,10.745-24,24v14.844c0,4.376-3.515,7.908-7.89,7.991	c-7.686,0.144-15.438,2.496-22.11,7.165v-50c0-13.255,10.745-24,24-24c284.654,0.006,272.068-0.029,273.265,0.033	C382.119,138.793,381.359,158.094,368.536,158.094z"></path><path fill="#fff3e4" d="M407.536,284.094H87.049c-13.255,0-24,10.745-24,24v92.001c0,5.522-4.477,9.999-9.999,9.999H33.049	v-122c0-13.255,10.745-24,24-24c0,0,350.846,0.011,351.265,0.033C421.119,264.793,420.359,284.094,407.536,284.094z"></path><path fill="#ff8c95" d="M136.527,321.358c-1.623,0.768-3.153,1.79-4.528,3.079c-2.661,2.495-7.259,2.469-9.921-0.024	c-5.317-4.979-1.755-12.876,4.689-12.862c3.568,0.008,7.141,0.956,10.235,2.74C139.804,315.905,139.451,319.975,136.527,321.358z"></path><path fill="#ff8c95" d="M92.489,352.44c2.305,6.43-6.102,11.197-10.324,5.826c-5.472-6.962-9.498-15.875-10.296-26.012	c-1.163-15.017,12.834-23.049,24.348-20.116c5.015,1.277,6.154,7.936,1.838,10.793c-5.213,3.452-8.798,9.418-8.186,17.323	C90.206,344.555,91.125,348.635,92.489,352.44z"></path><path fill="#ff8c95" d="M259.527,321.358c-1.623,0.768-3.153,1.79-4.528,3.079c-2.661,2.495-7.259,2.469-9.921-0.024	c-5.317-4.979-1.755-12.876,4.689-12.862c3.568,0.008,7.141,0.956,10.235,2.74C262.804,315.905,262.451,319.975,259.527,321.358z"></path><path fill="#ff8c95" d="M215.489,352.44c2.305,6.43-6.102,11.197-10.324,5.826c-5.472-6.962-9.498-15.875-10.296-26.012	c-1.163-15.017,12.834-23.049,24.348-20.116c5.015,1.277,6.154,7.936,1.838,10.793c-5.213,3.452-8.798,9.418-8.186,17.323	C213.206,344.555,214.125,348.635,215.489,352.44z"></path><path fill="#ff8c95" d="M382.526,321.358c-1.623,0.768-3.153,1.79-4.528,3.079c-2.661,2.495-7.259,2.469-9.921-0.024	c-5.317-4.979-1.755-12.876,4.689-12.862c3.568,0.008,7.141,0.956,10.235,2.74C385.803,315.905,385.45,319.975,382.526,321.358z"></path><path fill="#ff8c95" d="M338.488,352.44c2.305,6.43-6.102,11.197-10.324,5.826c-5.472-6.962-9.498-15.875-10.296-26.012	c-1.163-15.017,12.834-23.049,24.347-20.116c5.015,1.277,6.154,7.936,1.838,10.793c-5.213,3.452-8.798,9.418-8.186,17.323	C336.206,344.555,337.124,348.635,338.488,352.44z"></path><path fill="#eef7ff" d="M451.229,410.123c10.151,0.65,9.406,15.971-0.766,15.971H40.779c-8.64,0-15.07,7.79-13.5,16.03	c0.107,0.57,0.225,1.137,0.353,1.699c1.741,7.67-7.298,13.205-13.099,7.894c-7.209-6.601-12.353-15.453-14.254-25.592	c-1.57-8.244,4.855-16.03,13.5-16.03C13.779,410.094,450.929,410.104,451.229,410.123z"></path></svg>